{"title":"On the Edge of 'Blade Runner'","uid":7456350,"size":294205750,"categoryP":"video","categoryS":"tv_shows","magnet":"?xt=urn:btih:69dc659e6d05e0a193fc7cd34ae6573dfbabe4ae&amp;dn=On+the+Edge+of+%27Blade+Runner%27&amp;tr=udp%3A%2F%2Ftracker.openbittorrent.com%3A80&amp;tr=udp%3A%2F%2Fopen.demonii.com%3A1337&amp;tr=udp%3A%2F%2Ftracker.coppersurfer.tk%3A6969&amp;tr=udp%3A%2F%2Fexodus.desync.com%3A6969","seeders":0,"leechers":1,"uploader":"rubberaddict","files":1,"time":1342674759,"description":"----------------------------------------------------------------------------------\nGeneral\nFormat                                   : AVI\nFormat/Info                              : Audio Video Interleave\nFile size                                : 281 MiB\nDuration                                 : 52mn 16s\nOverall bit rate                         : 750 Kbps\nWriting library                          : VirtualDub build 22022/release\n\nVideo\nID                                       : 0\nFormat                                   : MPEG-4 Visual\nFormat profile                           : Simple@L3\nFormat settings, BVOP                    : No\nFormat settings, QPel                    : No\nFormat settings, GMC                     : No warppoints\nFormat settings, Matrix                  : Default (H.263)\nCodec ID                                 : XVID\nCodec ID/Hint                            : XviD\nDuration                                 : 52mn 16s\nBit rate                                 : 613 Kbps\nWidth                                    : 512 pixels\nHeight                                   : 288 pixels\nDisplay aspect ratio                     : 16:9\nFrame rate                               : 25.000 fps\nColor space                              : YUV\nChroma subsampling                       : 4:2:0\nBit depth                                : 8 bits\nScan type                                : Progressive\nCompression mode                         : Lossy\nBits/(Pixel*Frame)                       : 0.166\nStream size                              : 229 MiB (82%)\nWriting library                          : XviD 0.0.09 (UTC 2003-03-25)\n\nAudio\nID                                       : 1\nFormat                                   : MPEG Audio\nFormat version                           : Version 1\nFormat profile                           : Layer 3\nMode                                     : Joint stereo\nMode extension                           : MS Stereo\nCodec ID                                 : 55\nCodec ID/Hint                            : MP3\nDuration                                 : 52mn 16s\nBit rate mode                            : Constant\nBit rate                                 : 128 Kbps\nChannel(s)                               : 2 channels\nSampling rate                            : 48.0 KHz\nCompression mode                         : Lossy\nStream size                              : 47.9 MiB (17%)\nAlignment                                : Split accross interleaves\nInterleave, duration                     : 40 ms (1.00 video frame)\nInterleave, preload duration             : 500 ms\n\n----------------------------------------------------------------------------------\n\nENJOY!!! BE SEEING YOU!","torrent":{"xt":"urn:btih:69dc659e6d05e0a193fc7cd34ae6573dfbabe4ae","amp;dn":"On+the+Edge+of+%27Blade+Runner%27","amp;tr":["udp%3A%2F%2Ftracker.openbittorrent.com%3A80","udp%3A%2F%2Fopen.demonii.com%3A1337","udp%3A%2F%2Ftracker.coppersurfer.tk%3A6969","udp%3A%2F%2Fexodus.desync.com%3A6969"],"infoHash":"69dc659e6d05e0a193fc7cd34ae6573dfbabe4ae","infoHashBuffer":{"type":"Buffer","data":[105,220,101,158,109,5,224,161,147,252,124,211,74,230,87,61,251,171,228,174]},"announce":[],"urlList":[]}}